# xmcd
#
# Track frame offsets:
#	150
#	17451
#	37763
#	57863
#	77656
#	94761
#	114669
#	130859
#	149647
#	168757
#	186939
#
# Disc length: 2787 seconds
#
# Revision: 1
# Processed by: cddbd v1.5.2PL0 Copyright (c) Steve Scherf et al.
# Submitted via: audiograbber 1.83.01
#
DISCID=870ae10b
DTITLE=Tara Simmons - EPilation
DYEAR=2007
DGENRE=Alternative
TTITLE0=Break the Rules for Me
TTITLE1=Ballet
TTITLE2=Pendulum
TTITLE3=Everybody Loves You
TTITLE4=The Recycling Bin Song
TTITLE5=Patience
TTITLE6=Rat
TTITLE7=Forget
TTITLE8=Trip Over
TTITLE9=Keep on Trying
TTITLE10=Nucleus
EXTD=
EXTT0=
EXTT1=
EXTT2=
EXTT3=
EXTT4=
EXTT5=
EXTT6=
EXTT7=
EXTT8=
EXTT9=
EXTT10=
PLAYORDER=
